<svg t="1576145287605" class="icon" viewBox="0 0 1024 1024" version="1.1" xmlns="http://www.w3.org/2000/svg" p-id="1906" width="200" height="200"><path d="M512 1024c-282.8288 0-512-229.1712-512-512s229.1712-512 512-512 512 229.1712 512 512-229.1712 512-512 512z m0-975.228343c-255.1808 0-463.228343 208.047543-463.228343 463.228343s208.047543 463.228343 463.228343 463.228343c255.1808 0 463.228343-208.047543 463.228343-463.228343s-208.047543-463.228343-463.228343-463.228343z" fill="#e6e6e6" p-id="1907"></path><path d="M549.390629 512l198.304914-198.304914c9.742629-9.742629 9.742629-26.0096 0-37.390629l-1.6384-1.609143a25.512229 25.512229 0 0 0-35.752229 0L512 474.609371l-198.304914-198.304914a25.512229 25.512229 0 0 0-35.752229 0l-1.6384 1.6384c-9.742629 9.742629-9.742629 26.0096 0 37.390629l198.304914 196.666514-198.304914 198.304914c-9.742629 9.742629-9.742629 26.0096 0 37.390629l1.6384 1.6384a25.512229 25.512229 0 0 0 35.752229 0l198.304914-199.914057 198.304914 198.304914a25.512229 25.512229 0 0 0 35.752229 0l1.6384-1.6384c9.742629-9.742629 9.742629-26.0096 0-37.390629L549.390629 512z" fill="#e6e6e6" p-id="1908"></path></svg>